<?xml version="1.0" encoding="utf-8"?>
<!-- Generator: Adobe Illustrator 16.0.0, SVG Export Plug-In . SVG Version: 6.00 Build 0)  -->
<!DOCTYPE svg PUBLIC "-//W3C//DTD SVG 1.1//EN" "http://www.w3.org/Graphics/SVG/1.1/DTD/svg11.dtd">
<svg version="1.1" id="Layer_1" xmlns="http://www.w3.org/2000/svg" xmlns:xlink="http://www.w3.org/1999/xlink" x="0px" y="0px"
	 width="246px" height="20.122px" viewBox="0 0 246 20.122" enable-background="new 0 0 246 20.122" xml:space="preserve">
<g>
	<polygon fill="#00C6B7" points="38.352,20.122 37.855,19.852 19.22,1.188 0.585,19.874 -0.123,19.167 18.993,0 19.408,0 
		19.594,0.146 38.238,18.819 57.01,0 57.425,0 57.611,0.147 76.581,19.164 75.873,19.87 57.237,1.188 	"/>
</g>
<g>
	<polygon fill="#00C6B7" points="114.352,20.122 113.855,19.852 95.22,1.188 76.585,19.874 75.877,19.167 94.993,0 95.408,0 
		95.594,0.146 114.238,18.819 133.01,0 133.425,0 133.611,0.147 152.581,19.164 151.873,19.87 133.237,1.188 	"/>
</g>
<g>
	<polygon fill="#00C6B7" points="189.352,20.122 188.855,19.852 170.22,1.188 151.585,19.874 150.877,19.167 169.993,0 170.408,0 
		170.594,0.146 189.238,18.819 208.01,0 208.425,0 208.611,0.147 227.581,19.164 226.873,19.87 208.237,1.188 	"/>
</g>
<g>
	<path fill="#00C6B7" d="M226.884,20L246,0.77l-0.646-0.738L227,18.465c0,0.464,0,0.535,0,1.535H226.884z"/>
</g>
</svg>
